<svg width="23" height="19" viewBox="0 0 23 19" fill="none" xmlns="http://www.w3.org/2000/svg">
<path d="M12.7382 18.7214C12.6491 18.6332 12.5784 18.5284 12.5302 18.4131C12.482 18.2978 12.4572 18.1742 12.4572 18.0493C12.4572 17.9245 12.482 17.8009 12.5302 17.6855C12.5784 17.5702 12.6491 17.4655 12.7382 17.3772L19.7278 10.4498L0.958301 10.4498C0.704143 10.4498 0.460395 10.3497 0.280679 10.1716C0.100963 9.99345 -4.26266e-07 9.75183 -4.15253e-07 9.49989C-4.04241e-07 9.24795 0.100963 9.00633 0.280679 8.82818C0.460395 8.65004 0.704143 8.54995 0.958301 8.54995L19.7278 8.54996L12.7382 1.62254C12.5584 1.4443 12.4574 1.20254 12.4574 0.950464C12.4574 0.698385 12.5584 0.456631 12.7382 0.278384C12.918 0.100137 13.1619 -4.28158e-07 13.4162 -4.1892e-07C13.6705 -4.09682e-07 13.9144 0.100137 14.0942 0.278384L22.7189 8.82781C22.808 8.91603 22.8787 9.0208 22.927 9.13612C22.9752 9.25144 23 9.37506 23 9.49989C23 9.62473 22.9752 9.74834 22.927 9.86366C22.8787 9.97898 22.808 10.0837 22.7189 10.172L14.0942 18.7214C14.0052 18.8097 13.8995 18.8798 13.7832 18.9276C13.6669 18.9754 13.5422 19 13.4162 19C13.2903 19 13.1656 18.9754 13.0493 18.9276C12.9329 18.8798 12.8272 18.8097 12.7382 18.7214Z" fill="black"/>
</svg>
