<svg width="13" height="8" viewBox="0 0 13 8" fill="none" xmlns="http://www.w3.org/2000/svg">
<path d="M6.90498 7.81106L12.8455 1.02225C12.9447 0.908977 13 0.758483 13 0.601985C13 0.445487 12.9447 0.294995 12.8455 0.18172L12.8388 0.174411C12.7907 0.119307 12.7328 0.0754294 12.6687 0.0454459C12.6046 0.0154624 12.5355 4.76837e-07 12.4657 4.76837e-07C12.3959 4.76837e-07 12.3268 0.0154624 12.2627 0.0454459C12.1985 0.0754294 12.1407 0.119307 12.0926 0.174411L6.49888 6.56732L0.907407 0.174411C0.859331 0.119307 0.801462 0.0754294 0.737322 0.0454459C0.673181 0.0154624 0.604109 4.76837e-07 0.534307 4.76837e-07C0.464505 4.76837e-07 0.395432 0.0154624 0.331292 0.0454459C0.267151 0.0754294 0.209282 0.119307 0.161206 0.174411L0.154493 0.18172C0.0553226 0.294995 0 0.445487 0 0.601985C0 0.758483 0.0553226 0.908977 0.154493 1.02225L6.09502 7.81106C6.14726 7.87077 6.21009 7.9183 6.2797 7.95078C6.34932 7.98325 6.42427 8 6.5 8C6.57574 8 6.65068 7.98325 6.7203 7.95078C6.78991 7.9183 6.85274 7.87077 6.90498 7.81106Z" fill="#92929D"/>
</svg>
