<svg width="18" height="22" viewBox="0 0 18 22" fill="none" xmlns="http://www.w3.org/2000/svg">
<path d="M8.64293 12.5714C7.86593 12.5714 7.10638 12.341 6.46033 11.9093C5.81428 11.4776 5.31075 10.8641 5.0134 10.1462C4.71606 9.42835 4.63826 8.63845 4.78984 7.87638C4.94143 7.11431 5.31559 6.41431 5.86501 5.86489C6.41443 5.31547 7.11443 4.94131 7.8765 4.78972C8.63857 4.63814 9.42848 4.71594 10.1463 5.01328C10.8642 5.31062 11.4777 5.81416 11.9094 6.46021C12.3411 7.10626 12.5715 7.86581 12.5715 8.64281C12.5703 9.68435 12.156 10.6829 11.4195 11.4193C10.683 12.1558 9.68447 12.5701 8.64293 12.5714ZM8.64293 6.28566C8.17673 6.28566 7.721 6.42391 7.33337 6.68291C6.94574 6.94192 6.64362 7.31006 6.46521 7.74077C6.28681 8.17148 6.24013 8.64542 6.33108 9.10266C6.42203 9.5599 6.64652 9.97991 6.97618 10.3096C7.30583 10.6392 7.72583 10.8637 8.18307 10.9547C8.64031 11.0456 9.11426 10.9989 9.54497 10.8205C9.97568 10.6421 10.3438 10.34 10.6028 9.95237C10.8618 9.56474 11.0001 9.10901 11.0001 8.64281C10.9994 8.01785 10.7509 7.41866 10.309 6.97674C9.86708 6.53483 9.26789 6.28629 8.64293 6.28566Z" fill="#1B2D51"/>
<path d="M8.64287 22L2.01458 14.1829C1.92248 14.0656 1.83133 13.9474 1.74115 13.8286C0.608922 12.3371 -0.00273522 10.5154 9.19512e-06 8.64286C9.19512e-06 6.35063 0.910594 4.15228 2.53144 2.53143C4.15229 0.910584 6.35064 0 8.64287 0C10.9351 0 13.1334 0.910584 14.7543 2.53143C16.3751 4.15228 17.2857 6.35063 17.2857 8.64286C17.2885 10.5145 16.6771 12.3354 15.5454 13.8262L15.5446 13.8286C15.5446 13.8286 15.3089 14.1381 15.2735 14.1798L8.64287 22ZM2.99594 12.8818C2.99594 12.8818 3.17901 13.1238 3.22065 13.1756L8.64287 19.5706L14.0722 13.167C14.1067 13.1238 14.2906 12.8802 14.2914 12.8794C15.2163 11.6609 15.7161 10.1727 15.7143 8.64286C15.7143 6.7674 14.9693 4.96875 13.6431 3.6426C12.317 2.31645 10.5183 1.57143 8.64287 1.57143C6.76741 1.57143 4.96876 2.31645 3.64261 3.6426C2.31646 4.96875 1.57144 6.7674 1.57144 8.64286C1.56979 10.1736 2.07019 11.6627 2.99594 12.8818Z" fill="#1B2D51"/>
</svg>
