<svg width="21" height="21" viewBox="0 0 21 21" fill="none" xmlns="http://www.w3.org/2000/svg">
<path d="M11.7115 15.75C11.7115 15.9896 11.6405 16.2239 11.5074 16.4231C11.3742 16.6223 11.185 16.7776 10.9636 16.8693C10.7423 16.961 10.4987 16.985 10.2636 16.9383C10.0286 16.8915 9.81275 16.7761 9.64332 16.6067C9.47388 16.4372 9.35849 16.2214 9.31174 15.9864C9.265 15.7513 9.28899 15.5077 9.38069 15.2864C9.47239 15.065 9.62767 14.8758 9.82691 14.7426C10.0261 14.6095 10.2604 14.5385 10.5 14.5385C10.8213 14.5385 11.1295 14.6661 11.3567 14.8933C11.5839 15.1205 11.7115 15.4287 11.7115 15.75ZM10.5 4.84615C8.27279 4.84615 6.46154 6.47668 6.46154 8.48077V8.88461C6.46154 9.09883 6.54664 9.30427 6.69811 9.45574C6.84958 9.60721 7.05502 9.69231 7.26923 9.69231C7.48345 9.69231 7.68889 9.60721 7.84036 9.45574C7.99183 9.30427 8.07693 9.09883 8.07693 8.88461V8.48077C8.07693 7.37019 9.16428 6.46154 10.5 6.46154C11.8357 6.46154 12.9231 7.37019 12.9231 8.48077C12.9231 9.59134 11.8357 10.5 10.5 10.5C10.2858 10.5 10.0803 10.5851 9.92888 10.7366C9.77741 10.888 9.69231 11.0935 9.69231 11.3077V12.1154C9.69231 12.3296 9.77741 12.535 9.92888 12.6865C10.0803 12.838 10.2858 12.9231 10.5 12.9231C10.7142 12.9231 10.9197 12.838 11.0711 12.6865C11.2226 12.535 11.3077 12.3296 11.3077 12.1154V12.0427C13.1492 11.7045 14.5385 10.2355 14.5385 8.48077C14.5385 6.47668 12.7272 4.84615 10.5 4.84615ZM21 10.5C21 12.5767 20.3842 14.6068 19.2304 16.3335C18.0767 18.0602 16.4368 19.406 14.5182 20.2007C12.5996 20.9954 10.4884 21.2034 8.45155 20.7982C6.41475 20.3931 4.54383 19.3931 3.07538 17.9246C1.60693 16.4562 0.606904 14.5852 0.201759 12.5484C-0.203385 10.5116 0.00454949 8.40045 0.799269 6.48182C1.59399 4.5632 2.9398 2.92332 4.66652 1.76957C6.39323 0.615814 8.4233 0 10.5 0C13.2839 0.00293982 15.9529 1.11013 17.9214 3.07862C19.8899 5.04712 20.9971 7.71613 21 10.5ZM19.3846 10.5C19.3846 8.74279 18.8635 7.02504 17.8873 5.56397C16.911 4.1029 15.5234 2.96414 13.9 2.29169C12.2765 1.61923 10.4901 1.44328 8.7667 1.7861C7.04325 2.12891 5.46017 2.97509 4.21763 4.21763C2.9751 5.46016 2.12892 7.04325 1.7861 8.7667C1.44329 10.4901 1.61923 12.2765 2.29169 13.9C2.96414 15.5234 4.10291 16.911 5.56398 17.8873C7.02504 18.8635 8.74279 19.3846 10.5 19.3846C12.8555 19.3819 15.1138 18.445 16.7794 16.7794C18.445 15.1138 19.3819 12.8555 19.3846 10.5Z" fill="white"/>
</svg>
