<svg width="26" height="26" viewBox="0 0 26 26" fill="none" xmlns="http://www.w3.org/2000/svg">
<path d="M23.1811 25.3158L14.5722 16.6947C13.8889 17.2421 13.1032 17.6754 12.215 17.9947C11.3268 18.314 10.3816 18.4737 9.37951 18.4737C6.89705 18.4737 4.7963 17.6125 3.07725 15.8901C1.3582 14.1677 0.498225 12.064 0.497314 9.57894C0.497314 7.09298 1.35729 4.98926 3.07725 3.26778C4.79721 1.54631 6.89796 0.685116 9.37951 0.684204C11.862 0.684204 13.9632 1.5454 15.6831 3.26778C17.4031 4.99017 18.2626 7.09389 18.2617 9.57894C18.2617 10.5824 18.1023 11.5289 17.7834 12.4184C17.4646 13.3079 17.0319 14.0947 16.4853 14.7789L25.0942 23.4L23.1811 25.3158ZM9.37951 15.7368C11.0876 15.7368 12.5398 15.1384 13.7359 13.9415C14.932 12.7446 15.5296 11.2904 15.5287 9.57894C15.5287 7.86841 14.9311 6.4147 13.7359 5.21778C12.5407 4.02087 11.0885 3.42196 9.37951 3.42105C7.6714 3.42105 6.21973 4.01996 5.0245 5.21778C3.82928 6.41561 3.23121 7.86933 3.2303 9.57894C3.2303 11.2895 3.82837 12.7436 5.0245 13.9415C6.22064 15.1393 7.67231 15.7377 9.37951 15.7368Z" fill="#1B2D51"/>
</svg>
