<svg width="121" height="50" viewBox="0 0 121 50" fill="none" xmlns="http://www.w3.org/2000/svg">
<path d="M20.3144 13.5157L36.6311 25.998H27.0314L15.2018 16.6431L6.93462 21.7013V25.998H0V3.53531H6.93462V15.1746L26.1612 3.53531H36.6855L20.3144 13.5157Z" fill="#0A2738"/>
<path d="M69.5641 7.09751V25.9978H62.983V22.68C59.7469 24.8012 55.287 26.2969 49.7665 26.2969C43.7293 26.2969 38.0728 24.502 37.9912 17.5402L38.0728 7.07031H44.7083V15.4462C44.7083 19.4439 46.3128 21.5378 51.7517 21.5378C56.1844 21.5378 60.9434 19.6342 62.983 17.649V7.09751H69.5641Z" fill="#0A2738"/>
<path d="M85.4729 7.09779H95.0726V11.6937H85.4729V25.998H78.8375V11.6665H72.8818V7.09779H78.8375V5.68367C78.8375 1.82204 81.6113 0 88.2468 0C90.5311 0 91.7005 1.93562e-07 95.0726 0.326335V4.21516C93.5769 4.10638 92.0268 4.05199 90.3408 4.05199C86.5335 4.05199 85.5817 4.70467 85.4729 7.09779Z" fill="#0A2738"/>
<path d="M110.628 7.09779H120.227V11.6937H110.628V25.998H103.992V11.6665H98.0366V7.09779H103.992V5.68367C103.992 1.82204 106.766 0 113.402 0C115.686 0 116.855 1.93562e-07 120.227 0.326335V4.21516C118.732 4.10638 117.182 4.05199 115.496 4.05199C111.688 4.05199 110.737 4.70467 110.628 7.09779Z" fill="#0A2738"/>
<path d="M111.098 41.5526C111.098 39.0845 112.729 37.4969 114.85 37.4969C116.322 37.4969 117.333 38.2474 117.795 39.0701V37.6268H119.122V45.5361H117.795V44.0639C117.318 44.9155 116.294 45.666 114.836 45.666C112.729 45.666 111.098 44.0062 111.098 41.5526ZM117.795 41.567C117.795 39.734 116.553 38.6371 115.11 38.6371C113.667 38.6371 112.44 39.6907 112.44 41.5526C112.44 43.4144 113.667 44.5113 115.11 44.5113C116.553 44.5113 117.795 43.4289 117.795 41.567Z" fill="#52524D"/>
<path d="M106.62 43.3708V38.7089H105.595V37.6264H106.62V35.6346H107.933V37.6264H109.997V38.7089H107.933V43.3708C107.933 44.1501 108.222 44.4244 109.03 44.4244H109.997V45.5357H108.814C107.414 45.5357 106.62 44.9584 106.62 43.3708Z" fill="#52524D"/>
<path d="M104.604 41.567C104.604 44.0784 102.8 45.666 100.549 45.666C98.3115 45.666 96.6084 44.0784 96.6084 41.567C96.6084 39.0701 98.3692 37.4969 100.606 37.4969C102.858 37.4969 104.604 39.0701 104.604 41.567ZM97.9507 41.567C97.9507 43.5732 99.1775 44.5113 100.549 44.5113C101.92 44.5113 103.262 43.5732 103.262 41.567C103.262 39.5752 101.949 38.6371 100.592 38.6371C99.2063 38.6371 97.9507 39.5752 97.9507 41.567Z" fill="#52524D"/>
<path d="M93.5475 45.536V37.6267H94.861V45.536H93.5475ZM94.2259 36.3422C93.7207 36.3422 93.3311 35.9525 93.3311 35.4473C93.3311 34.9422 93.7207 34.5525 94.2259 34.5525C94.7022 34.5525 95.0919 34.9422 95.0919 35.4473C95.0919 35.9525 94.7022 36.3422 94.2259 36.3422Z" fill="#52524D"/>
<path d="M90.3629 45.5363L86.2206 40.9466V45.5363H84.9072V35.4764H86.2206V40.1383L90.3773 35.4764H92.0371L87.4763 40.5136L92.0804 45.5363H90.3629Z" fill="#52524D"/>
<path d="M75.929 44.0351L78.3826 37.6268H79.7393L74.9764 49.2599H73.6197L75.1785 45.4495L71.9888 37.6268H73.4465L75.929 44.0351Z" fill="#52524D"/>
<path d="M64.4867 39.0988C64.9919 38.2184 66.0455 37.4968 67.4455 37.4968C69.5816 37.4968 71.1981 39.0844 71.1981 41.5525C71.1981 44.0061 69.5672 45.6659 67.4455 45.6659C66.0022 45.6659 64.9775 44.9442 64.4867 44.0782V45.536H63.1733V34.8555H64.4867V39.0988ZM69.8558 41.5525C69.8558 39.6906 68.629 38.637 67.1713 38.637C65.7424 38.637 64.4867 39.7339 64.4867 41.5669C64.4867 43.4288 65.7424 44.5112 67.1713 44.5112C68.629 44.5112 69.8558 43.4143 69.8558 41.5525Z" fill="#52524D"/>
</svg>
