<svg width="56" height="19" viewBox="0 0 56 19" fill="none" xmlns="http://www.w3.org/2000/svg">
<mask id="mask0_1_1310" style="mask-type:luminance" maskUnits="userSpaceOnUse" x="0" y="0" width="56" height="19">
<path d="M55.7743 0H0V18.7293H55.7743V0Z" fill="white"/>
</mask>
<g mask="url(#mask0_1_1310)">
<path d="M10.2387 10.3429L5.79297 14.8239L9.6672 18.7288H10.8102L14.6602 14.8483L14.6855 14.8228L10.2398 10.3418L10.2387 10.3429ZM10.2684 18.1362L6.98216 14.8239L10.2387 11.5415L13.5205 14.8494L10.2684 18.1362Z" fill="#1B2D51"/>
<path d="M10.2387 2.58301L5.79297 7.06399L10.2387 11.545L14.6602 7.0895L14.6844 7.06399L10.2387 2.58301ZM10.2387 10.3464L6.98216 7.06399L10.2387 3.78163L13.4952 7.06399L10.2387 10.3464Z" fill="#1B2D51"/>
<path d="M14.1105 14.2469L9.67578 18.7291L18.5156 18.6991L14.1105 14.2469ZM11.7013 17.8772L14.1105 15.4422L16.5043 17.8617L11.7013 17.8772Z" fill="#1B2D51"/>
<path d="M6.37932 6.45996L1.93359 10.941L6.37932 15.422L10.8008 10.9665L10.8261 10.941L6.37932 6.45996ZM9.63583 10.941L6.37932 14.2234L3.12278 10.941L6.37932 7.65859L9.63583 10.941Z" fill="#1B2D51"/>
<path d="M1.04521 0H0V18.7293H1.04521V0Z" fill="#1B2D51"/>
<path d="M12.4624 1.10313C11.8689 0.504924 11.0798 0.174805 10.2401 0.174805C9.40043 0.174805 8.61132 0.504924 8.0167 1.10313C7.42323 1.70133 7.0957 2.49783 7.0957 3.34418C7.0957 4.19053 7.42323 4.98593 8.0167 5.58523C8.60911 6.18234 9.39822 6.51135 10.239 6.51135C11.0798 6.51135 11.8689 6.18234 12.4624 5.58523C13.6879 4.35005 13.6879 2.33942 12.4624 1.10424V1.10313ZM11.8678 4.98593C10.9699 5.89096 9.50922 5.89096 8.61132 4.98593C8.17606 4.54722 7.93649 3.96454 7.93649 3.34529C7.93649 2.72604 8.17606 2.14223 8.61132 1.70466C9.04653 1.26597 9.62465 1.02448 10.239 1.02448C10.8534 1.02448 11.4315 1.26597 11.8667 1.70466C12.7647 2.60972 12.7647 4.08196 11.8667 4.98705" fill="#1B2D51"/>
<path d="M28.773 18.6008H27.7168L24.845 14.9539L23.2546 16.5791V18.6008H22.4116V11.0712H23.2546V15.5677L27.5453 11.0712H28.6345L25.4318 14.3624L28.773 18.6008Z" fill="#1B2D51"/>
<path d="M31.28 11.0684H30.437V18.5991H31.28V11.0684Z" fill="#1B2D51"/>
<path d="M37.2155 18.729C34.9415 18.729 33.416 16.9322 33.416 14.8451C33.416 12.7581 34.9635 10.9402 37.2375 10.9402C39.5114 10.9402 41.0369 12.737 41.0369 14.8241C41.0369 16.9111 39.4895 18.729 37.2155 18.729ZM37.2155 11.7256C35.5075 11.7256 34.2909 13.1026 34.2909 14.8241C34.2909 16.5456 35.5295 17.9436 37.2364 17.9436C38.9432 17.9436 40.161 16.5667 40.161 14.8451C40.161 13.1236 38.9234 11.7256 37.2155 11.7256Z" fill="#1B2D51"/>
<path d="M45.4105 18.6008H44.5562V11.8555H42.0483V11.0712H47.9182V11.8555H45.4105V18.6008Z" fill="#1B2D51"/>
<path d="M55.7739 18.5995H54.8669L53.9923 16.6089H49.9255L49.0397 18.5995H48.1748L51.5797 11.0156H52.369L55.7739 18.5995ZM51.9633 12.0049L50.2555 15.8456H53.6604L51.9633 12.0049Z" fill="#1B2D51"/>
</g>
</svg>
