<svg width="283" height="271" viewBox="0 0 283 271" fill="none" xmlns="http://www.w3.org/2000/svg">
<g clip-path="url(#clip0_1_1335)">
<path opacity="0.04" d="M195.616 115.455C301.251 154.379 141.617 271.316 125.657 194.228C117.715 155.872 43.3108 179.6 45.5485 140.025C47.7611 100.461 81.295 103.869 114.552 84.4811C155.974 60.1132 167.645 105.147 195.616 115.455Z" stroke="#D2FD51" stroke-width="2" stroke-miterlimit="10"/>
<path opacity="0.07" d="M196.434 113.474C295.536 154.312 146.863 269.271 125.69 195.957C115.253 159.821 42.0493 175.288 46.5245 137.032C50.9526 98.8041 83.5493 99.1477 116.093 83.1399C156.678 63.1751 169.441 102.348 196.437 113.474H196.434Z" stroke="#FEFFFF" stroke-width="2" stroke-miterlimit="10"/>
<path opacity="0.11" d="M197.255 111.49C289.801 154.046 152.197 267.304 125.725 197.68C112.843 163.8 40.79 170.968 47.5001 134.034C54.1409 97.1388 85.7532 94.3595 117.632 81.7932C157.318 66.1539 171.207 99.5108 197.255 111.487V111.49Z" stroke="#FEFEFF" stroke-width="2" stroke-miterlimit="10"/>
<path opacity="0.15" d="M198.073 109.508C284.056 153.564 157.646 265.405 125.759 199.407C110.492 167.807 39.5286 166.654 48.4763 131.039C57.3298 95.479 87.9384 89.5713 119.171 80.4493C157.937 69.1299 172.949 96.6317 198.073 109.506V109.508Z" stroke="#FDFEFF" stroke-width="2" stroke-miterlimit="10"/>
<path opacity="0.19" d="M198.891 107.527C278.328 152.841 163.227 263.543 125.792 201.136C108.21 171.827 38.2668 162.339 49.4521 128.049C60.5182 93.8219 90.1092 84.7803 120.71 79.1137C158.533 72.1087 174.673 93.7167 198.891 107.53V107.527Z" stroke="#FDFEFF" stroke-width="2" stroke-miterlimit="10"/>
<path opacity="0.23" d="M199.709 105.543C272.641 151.865 168.953 261.667 125.823 202.859C106 175.831 37.0028 158.022 50.423 125.051C63.7046 92.1566 92.2558 79.9699 122.246 77.767C159.107 75.057 176.387 90.7323 199.706 105.546L199.709 105.543Z" stroke="#D2FD51" stroke-width="2" stroke-miterlimit="10"/>
<path opacity="0.26" d="M200.527 103.562C267.026 150.629 174.826 259.744 125.856 204.586C103.863 179.813 35.7384 153.705 51.399 122.055C66.8932 90.4968 94.3963 75.1429 123.785 76.4231C159.667 77.9832 178.103 87.6926 200.524 103.562H200.527Z" stroke="#D2FD51" stroke-width="2" stroke-miterlimit="10"/>
<path opacity="0.3" d="M201.345 101.578C261.514 149.13 180.824 257.727 125.889 206.309C101.783 183.748 34.4767 149.388 52.3749 119.057C70.0819 88.8314 96.5285 70.2882 125.324 75.0764C160.222 80.876 179.836 84.578 201.342 101.575L201.345 101.578Z" stroke="#D2FD51" stroke-width="2" stroke-miterlimit="10"/>
<path opacity="0.34" d="M202.163 99.5967C256.14 147.385 186.921 255.585 125.923 208.038C99.7449 187.633 33.2151 145.074 53.3482 116.064C73.2678 87.1744 98.6636 65.4141 126.863 73.7353C160.779 83.744 181.605 81.397 202.163 99.5967Z" stroke="#FBFDFF" stroke-width="2" stroke-miterlimit="10"/>
<path opacity="0.38" d="M202.981 97.6126C250.939 145.409 193.079 253.296 125.956 209.762C97.732 191.457 31.9536 140.756 54.3243 113.069C76.4593 85.5118 100.813 60.5122 128.402 72.3913C161.353 86.5786 183.433 78.13 202.981 97.6126Z" stroke="#FBFDFF" stroke-width="2" stroke-miterlimit="10"/>
<path opacity="0.41" d="M203.799 95.6314C245.942 143.242 199.26 250.863 125.989 211.488C95.7218 195.223 30.692 136.439 55.3003 110.074C79.648 83.852 102.981 55.5938 129.941 71.0474C161.949 89.3967 185.346 74.7855 203.799 95.6314Z" stroke="#FAFDFF" stroke-width="2" stroke-miterlimit="10"/>
<path opacity="0.45" d="M204.617 93.6474C241.181 140.931 205.432 248.292 126.022 213.214C93.703 198.938 29.4302 132.125 56.2761 107.078C82.8365 82.1894 105.171 50.6642 131.482 69.7035C162.573 92.2037 187.384 71.3578 204.619 93.6474H204.617Z" stroke="#FAFDFF" stroke-width="2" stroke-miterlimit="10"/>
<path opacity="0.49" d="M205.435 91.6661C236.681 138.548 211.571 245.604 126.056 214.941C91.6679 202.61 28.1687 127.808 57.2495 104.083C86.0226 80.5296 107.381 45.7347 133.018 68.3596C163.217 95.0079 189.572 67.8636 205.435 91.6634V91.6661Z" stroke="#F9FDFF" stroke-width="2" stroke-miterlimit="10"/>
<path opacity="0.53" d="M206.252 89.6821C232.458 136.162 217.657 242.817 126.089 216.664C89.6047 206.245 26.9041 123.491 58.2253 101.085C89.2137 78.8643 109.61 40.8079 134.557 67.0129C163.882 97.8177 191.95 64.314 206.252 89.6794V89.6821Z" stroke="#F9FCFF" stroke-width="2" stroke-miterlimit="10"/>
<path opacity="0.56" d="M207.07 87.7009C228.515 133.871 223.685 239.96 126.122 218.393C87.514 209.859 25.6424 119.176 59.2013 98.0948C92.4024 77.2073 111.851 35.8922 136.098 65.6773C164.567 100.644 194.554 60.7505 207.073 87.7037L207.07 87.7009Z" stroke="#F8FCFF" stroke-width="2" stroke-miterlimit="10"/>
<path opacity="0.6" d="M207.888 85.7197C224.838 131.762 229.649 237.053 126.155 220.12C85.3956 213.45 24.3808 114.859 60.1745 95.0994C95.5883 75.5475 114.099 30.9821 137.635 64.3334C165.257 103.473 197.388 57.1954 207.888 85.7224V85.7197Z" stroke="#F8FCFF" stroke-width="2" stroke-miterlimit="10"/>
<path d="M152.522 223.968C76.9414 377.538 -17.9761 103.354 82.0211 106.524C132.097 108.109 115.048 -8.66758 164.034 0.825733C213.021 10.319 195.419 58.7194 213.337 113.058C235.713 180.919 172.053 184.283 152.522 223.966V223.968Z" stroke="#FFFFFA" stroke-width="2" stroke-miterlimit="10"/>
<g style="mix-blend-mode:hard-light" opacity="0.95">
<path d="M154.668 225.612C78.2861 369.519 -16.9419 111.351 79.9442 106.169C128.079 103.595 120.571 -9.49334 167.347 2.93165C214.116 15.3178 200.623 63.0116 214.512 115.596C232.075 181.143 174.828 187.622 154.665 225.612H154.668Z" stroke="#FFFFFA" stroke-width="2" stroke-miterlimit="10"/>
</g>
<g style="mix-blend-mode:hard-light" opacity="0.9">
<path d="M156.811 227.255C79.8278 361.483 -16.0796 119.434 77.8674 105.817C123.99 99.1339 126.094 -10.3135 170.661 5.03761C215.208 20.3139 205.642 67.3371 215.691 118.134C228.207 181.415 177.643 190.933 156.811 227.255Z" stroke="#D2FD51" stroke-width="2" stroke-miterlimit="10"/>
</g>
<g style="mix-blend-mode:hard-light" opacity="0.85">
<path d="M158.957 228.895C81.5884 353.453 -15.367 127.647 75.7906 105.466C119.836 94.7475 131.62 -11.1365 173.977 7.14076C216.306 25.3072 210.761 71.6238 216.869 120.667C224.461 181.631 180.499 194.214 158.957 228.895Z" stroke="#D2FD51" stroke-width="2" stroke-miterlimit="10"/>
</g>
<g style="mix-blend-mode:hard-light" opacity="0.8">
<path d="M161.103 230.538C83.5934 345.442 -14.7679 136.043 73.7168 105.111C115.636 90.458 137.147 -11.9623 177.294 9.24666C217.404 30.3032 215.888 75.8938 218.051 123.205C220.729 181.836 183.408 197.481 161.106 230.538H161.103Z" stroke="#D2FD51" stroke-width="2" stroke-miterlimit="10"/>
</g>
<g style="mix-blend-mode:hard-light" opacity="0.75">
<path d="M163.247 232.182C85.8699 337.478 -14.2215 144.647 71.6401 104.759C111.415 86.2794 142.67 -12.7825 180.604 11.3526C218.494 35.2992 221.023 80.1528 219.224 125.743C217.003 182.019 186.361 200.731 163.247 232.184V232.182Z" stroke="#FFFFFC" stroke-width="2" stroke-miterlimit="10"/>
</g>
<g style="mix-blend-mode:hard-light" opacity="0.7">
<path d="M165.393 233.825C88.4344 329.592 -13.6618 153.472 69.5629 104.407C107.209 82.2117 148.193 -13.6054 183.92 13.4558C219.592 40.2953 226.177 84.3924 220.402 128.279C213.306 182.185 189.385 203.97 165.393 233.825Z" stroke="#FFFFFC" stroke-width="2" stroke-miterlimit="10"/>
</g>
<g style="mix-blend-mode:hard-light" opacity="0.65">
<path d="M167.536 235.468C91.31 321.819 -13.0183 162.506 67.4863 104.052C103.042 78.2381 153.717 -14.4284 187.234 15.5617C220.687 45.2913 231.357 88.6292 221.58 130.814C209.641 182.34 192.483 207.212 167.539 235.468H167.536Z" stroke="#FFFFFC" stroke-width="2" stroke-miterlimit="10"/>
</g>
<g style="mix-blend-mode:hard-light" opacity="0.6">
<path d="M169.682 237.111C94.4986 314.202 -12.2364 171.708 65.4095 103.7C98.9322 74.3393 159.243 -15.2514 190.547 17.6676C221.783 50.2874 236.559 92.8632 222.756 133.352C206.003 182.498 195.655 210.479 169.682 237.111Z" stroke="#B5E32A" stroke-width="2" stroke-miterlimit="10"/>
</g>
<g style="mix-blend-mode:hard-light" opacity="0.55">
<path d="M171.828 238.754C98.0031 306.781 -11.2912 181.035 63.3324 103.349C94.8921 70.4905 164.766 -16.0743 193.861 19.7736C222.875 55.2835 241.791 97.1028 223.934 135.891C202.401 182.665 198.921 213.791 171.828 238.757V238.754Z" stroke="#B5E32A" stroke-width="2" stroke-miterlimit="10"/>
</g>
<g style="mix-blend-mode:hard-light" opacity="0.5">
<path d="M173.972 240.397C101.802 299.607 -10.165 190.437 61.256 102.994C90.9274 66.6693 170.29 -16.8973 197.174 21.8767C223.97 60.2767 247.045 101.356 225.11 138.426C198.824 182.845 202.279 217.174 173.972 240.397Z" stroke="#B5E32A" stroke-width="2" stroke-miterlimit="10"/>
</g>
<g style="mix-blend-mode:hard-light" opacity="0.45">
<path d="M176.118 242.041C105.861 292.733 -8.86483 199.869 59.179 102.642C87.0259 62.8509 175.813 -17.7203 200.49 23.9827C225.068 65.2728 252.322 105.635 226.288 140.962C195.275 183.052 205.736 220.671 176.118 242.041Z" stroke="#B5E32A" stroke-width="2" stroke-miterlimit="10"/>
</g>
<g style="mix-blend-mode:hard-light" opacity="0.4">
<path d="M178.264 243.684C110.118 286.199 -7.40883 209.299 57.1052 102.29C83.1859 59.0242 181.336 -18.5433 203.804 26.0858C226.161 70.266 257.607 109.932 227.467 143.497C191.734 183.288 209.291 224.326 178.264 243.681V243.684Z" stroke="#FFFFFE" stroke-width="2" stroke-miterlimit="10"/>
</g>
<g style="mix-blend-mode:hard-light" opacity="0.35">
<path d="M180.407 245.327C114.482 280.05 -5.82572 218.695 55.0255 101.938C79.3954 55.1809 186.862 -19.3663 207.117 28.1917C227.256 75.2648 262.894 114.261 228.642 146.035C188.196 183.554 212.924 228.2 180.407 245.327Z" stroke="#FFFFFE" stroke-width="2" stroke-miterlimit="10"/>
</g>
<g style="mix-blend-mode:hard-light" opacity="0.3">
<path d="M182.553 246.97C118.844 274.311 -4.13436 228.045 52.9487 101.583C75.641 51.3127 192.386 -20.1892 210.431 30.2977C228.351 80.2609 268.179 118.611 229.821 148.573C184.658 183.85 216.617 232.353 182.553 246.97Z" stroke="#FFFFFE" stroke-width="2" stroke-miterlimit="10"/>
</g>
<g style="mix-blend-mode:hard-light" opacity="0.25">
<path d="M184.697 248.613C123.05 268.994 -2.36265 237.344 50.8718 101.231C71.9199 47.4166 197.909 -21.0095 213.747 32.4008C229.446 85.2541 273.459 122.978 230.999 151.106C181.106 184.161 220.318 236.834 184.699 248.611L184.697 248.613Z" stroke="#D2FD51" stroke-width="2" stroke-miterlimit="10"/>
</g>
<g style="mix-blend-mode:hard-light" opacity="0.2">
<path d="M186.843 250.257C126.937 264.075 -0.52703 246.585 48.795 100.88C68.221 43.493 203.435 -21.8324 217.061 34.5068C230.542 90.2502 278.727 127.359 232.175 153.644C177.54 184.493 223.956 241.694 186.843 250.254V250.257Z" stroke="#D2FD51" stroke-width="2" stroke-miterlimit="10"/>
</g>
<path opacity="0.2" d="M68.4624 183.562C-106.741 168.807 106.261 -50.8028 146.743 57.5612C167.015 111.825 267.886 43.3046 280.352 99.81C292.818 156.315 240.302 158.316 197.701 200.884C144.497 254.044 113.739 187.375 68.4624 183.56V183.562Z" stroke="#D2FD51" stroke-width="2" stroke-miterlimit="10"/>
<path opacity="0.21" d="M67.8688 186.566C-98.5556 166.817 99.3176 -46.1947 146.166 55.1892C169.466 105.615 271.046 48.8631 279.839 104.266C288.662 159.641 238.585 165.739 195.86 203.239C142.711 250.254 111.895 191.792 67.8716 186.566H67.8688Z" stroke="#D2FD51" stroke-width="2.06" stroke-miterlimit="10"/>
<path opacity="0.23" d="M67.2783 189.57C-90.2621 165.049 92.2527 -41.7057 145.592 52.8145C171.853 99.3528 274.207 54.4216 279.326 108.716C284.505 162.96 236.736 172.983 194.019 205.589C140.762 246.241 110.101 196.231 67.2783 189.567V189.57Z" stroke="#D2FD51" stroke-width="2.12" stroke-miterlimit="10"/>
<path opacity="0.24" d="M66.685 192.571C-81.8772 163.534 85.0213 -37.3138 145.016 50.4398C174.152 93.0572 277.366 59.9774 278.81 113.169C280.346 166.283 234.976 180.304 192.175 207.941C138.921 242.329 108.349 200.715 66.6822 192.571H66.685Z" stroke="#D2FD51" stroke-width="2.19" stroke-miterlimit="10"/>
<path opacity="0.25" d="M66.0944 195.574C-73.4064 162.315 77.5986 -32.9689 144.445 48.0679C176.356 86.7533 280.532 65.536 278.3 117.622C276.193 169.605 233.243 187.625 190.337 210.294C137.111 238.416 106.652 205.242 66.0944 195.574Z" stroke="#D2FD51" stroke-width="2.25" stroke-miterlimit="10"/>
<path opacity="0.26" d="M65.5011 198.575C-64.8801 161.42 69.9597 -28.6212 143.868 45.6904C178.444 80.4576 283.69 71.089 277.787 122.072C272.036 172.927 231.529 194.948 188.496 212.644C135.331 234.506 104.991 209.828 65.5011 198.575Z" stroke="#D2FD51" stroke-width="2.31" stroke-miterlimit="10"/>
<path opacity="0.28" d="M64.9103 201.579C-56.3207 160.885 62.1126 -24.2016 143.294 43.3184C180.432 74.2063 286.854 76.6475 277.274 126.525C267.88 176.25 229.843 202.286 186.654 214.996C133.581 230.616 103.36 214.483 64.9075 201.576L64.9103 201.579Z" stroke="#D2FD51" stroke-width="2.38" stroke-miterlimit="10"/>
<path opacity="0.29" d="M64.3171 204.583C-47.7694 160.732 54.08 -19.6461 142.72 40.9437C182.332 68.0215 290.015 82.2033 276.761 130.978C263.724 179.572 228.18 209.645 184.813 217.349C131.859 226.756 101.755 219.227 64.3171 204.58V204.583Z" stroke="#D2FD51" stroke-width="2.44" stroke-miterlimit="10"/>
<path opacity="0.3" d="M63.7266 207.584C-39.268 160.979 45.906 -14.9077 142.146 38.5718C184.167 61.9227 293.176 87.7619 276.251 135.431C259.57 182.895 226.535 217.038 182.975 219.701C130.159 222.932 100.152 224.066 63.7266 207.584Z" stroke="#D2FD51" stroke-width="2.5" stroke-miterlimit="10"/>
<path opacity="0.31" d="M63.1331 210.588C-30.8638 161.627 37.6458 -9.9533 141.572 36.1971C185.97 55.9125 296.34 93.3177 275.738 139.884C255.414 186.22 224.891 224.464 181.137 222.054C128.465 219.153 98.5302 229.023 63.1386 210.588H63.1331Z" stroke="#D2FD51" stroke-width="2.56" stroke-miterlimit="10"/>
<path opacity="0.33" d="M62.5425 213.588C-22.6204 162.661 29.358 -4.77715 140.995 33.8223C187.758 49.9909 299.498 98.8734 275.222 144.334C251.254 189.539 223.233 231.924 179.293 224.404C126.752 215.412 96.8527 234.105 62.5425 213.588Z" stroke="#D2FD51" stroke-width="2.62" stroke-miterlimit="10"/>
<path opacity="0.34" d="M61.952 216.592C-14.5958 164.049 21.0953 0.606829 140.421 31.4504C189.566 44.1525 302.659 104.432 274.709 148.79C247.098 192.864 221.561 239.419 177.452 226.759C125.021 211.713 95.0894 239.339 61.9493 216.592H61.952Z" stroke="#D2FD51" stroke-width="2.69" stroke-miterlimit="10"/>
<path opacity="0.35" d="M61.3587 219.596C-6.85425 165.737 12.8934 6.17096 139.847 29.0757C191.404 38.3778 305.823 109.988 274.199 153.242C242.945 196.187 219.867 246.931 175.613 229.111C123.264 208.033 93.1873 244.726 61.3614 219.596H61.3587Z" stroke="#D2FD51" stroke-width="2.75" stroke-miterlimit="10"/>
<path opacity="0.36" d="M60.768 222.597C0.543455 167.64 4.77748 11.8819 139.273 26.701C193.281 32.653 308.984 115.544 273.686 157.693C238.788 199.506 218.142 254.452 173.772 231.461C121.47 204.361 91.091 250.268 60.768 222.597Z" stroke="#BAEA2C" stroke-width="2.81" stroke-miterlimit="10"/>
<path opacity="0.38" d="M60.1748 225.601C7.5365 169.649 -3.23571 17.6981 138.7 24.3263C195.206 26.9642 312.147 121.099 273.173 162.146C234.629 202.832 216.393 261.978 171.931 233.814C119.645 200.695 88.7371 255.956 60.1748 225.601Z" stroke="#BAEA2C" stroke-width="2.88" stroke-miterlimit="10"/>
<path opacity="0.39" d="M59.5838 228.602C14.0854 171.639 -11.1468 23.592 138.122 21.9543C197.174 21.3059 315.305 126.658 272.657 166.599C230.47 206.154 214.618 269.498 170.087 236.166C117.793 197.024 86.0637 261.764 59.581 228.604L59.5838 228.602Z" stroke="#BAEA2C" stroke-width="2.94" stroke-miterlimit="10"/>
<path opacity="0.4" d="M58.9906 231.605C20.1663 173.457 -18.9603 29.5329 137.549 19.5796C199.19 15.6587 318.466 132.214 272.147 171.051C226.316 209.476 212.832 277.013 168.249 238.519C115.924 193.341 83.0416 267.633 58.9906 231.605Z" stroke="#BAEA2C" stroke-width="3" stroke-miterlimit="10"/>
</g>
<defs>
<clipPath id="clip0_1_1335">
<rect width="283" height="271" fill="white"/>
</clipPath>
</defs>
</svg>
